<svg id="Layer_1" data-name="Layer 1" xmlns="http://www.w3.org/2000/svg" viewBox="0 0 391.68 538.56" fill="#6a6a67"><title>ico-barcode</title><path d="M110.16,533.7c0,30,21.47,55.08,49,55.08H452.88c27.49,0,49-25.08,49-55.08V105.3c0-30-21.47-55.08-49-55.08H165.24c-34.15.5-54.74,25.56-55.08,55.08Zm12.24,0V105.3c.82-27.51,19.46-42.59,42.84-42.84H452.88c20,0,36.72,18.59,36.72,42.84V533.7c0,24.25-16.74,42.84-36.72,42.84H159.12C139.14,576.54,122.4,557.95,122.4,533.7ZM202,509.22H410V472.5H202Zm0-49H410V448H202Zm0-24.48H410V423.54H202Zm0-36.72H410V362.34H202Zm0-49H410V337.86H202Zm0-24.48H410V288.9H202Zm0-49H410V264.42H202Zm0-36.72H410V227.7H202Zm0-24.48H410V178.74H202Zm0-49H410V154.26H202ZM202,142H410V129.78H202Z" transform="translate(-110.16 -50.22)"/></svg>