<svg id="Layer_1" fill="#6a6a67" data-name="Layer 1" xmlns="http://www.w3.org/2000/svg" viewBox="0 0 388.93 550.8"><title>ico-csv</title><path d="M327.77,591.22l72.93-98.35c3.71-4.9,1.73-8.89-4.42-8.89H366a3.31,3.31,0,0,1-3.32-3.32v-65.1a11.15,11.15,0,0,0-11.14-11.16h-61a11.15,11.15,0,0,0-11.15,11.16v65.1a3.31,3.31,0,0,1-3.3,3.32H245.82c-6.16,0-8.15,4-4.44,8.89l72.94,98.35C318,596.12,324.05,596.12,327.77,591.22Z" transform="translate(-111.54 -44.1)"/><path d="M420.37,47.25a12.13,12.13,0,0,0-7.51-3.15H150.05A8.87,8.87,0,0,0,141.16,53V217a4.47,4.47,0,0,0,4.46,4.47h14a4.47,4.47,0,0,0,4.47-4.47V69.77a3.3,3.3,0,0,1,3.3-3.3h227a3.3,3.3,0,0,1,3.3,3.3l0,67.57a8.82,8.82,0,0,0,8.84,8.92H474.7a3.31,3.31,0,0,1,3.3,3.3V513.71a3.31,3.31,0,0,1-3.3,3.3l-72.25-.06a7.3,7.3,0,0,0-5.27,2.67l-12.48,16.9c-1.08,1.48-.47,2.68,1.35,2.68l105.23.17a9,9,0,0,0,8.94-8.92l.23-398.84a12.27,12.27,0,0,0-3.13-7.61Z" transform="translate(-111.54 -44.1)"/><path d="M159.6,403.74h-14a4.5,4.5,0,0,0-4.48,4.47l0,122.23a8.87,8.87,0,0,0,8.89,8.92l105.4-.17c1.84,0,2.43-1.2,1.35-2.68l-12.47-16.9a7.35,7.35,0,0,0-5.28-2.67l-71.68.06a3.31,3.31,0,0,1-3.3-3.3V408.21A4.47,4.47,0,0,0,159.6,403.74Z" transform="translate(-111.54 -44.1)"/><path d="M120.54,384.89H408.33a8.91,8.91,0,0,0,9-8.92V249.24a8.92,8.92,0,0,0-9-8.94H120.48a8.84,8.84,0,0,0-8.89,8.94l0,126.73A9,9,0,0,0,120.54,384.89Zm211.19-117.8,9.76,38.75c.78,3.08,1.6,6.36,2.42,9.76.75-3.1,1.55-6.27,2.39-9.42l10.22-39.09h27L356.22,359.5H328.53l-26-92.41h29.18Zm-76.58,56.29c-15.18-6-22.89-15.53-22.89-28.45,0-17.23,13.23-29.26,32.15-29.26,8.67,0,18.37,2.6,23.45,5.19l3.26,1.65-6.18,22.29L280,292.14a35.71,35.71,0,0,0-14.83-3.37c-5.22,0-5.62,3.51-5.62,4.59,0,1.8,0,3.1,10.31,7.5,14.8,6.16,21.7,15.26,21.7,28.66,0,13.83-8.89,30-34,30-9.33,0-21.1-3.28-25.86-6.24l-2.52-1.57,3.78-23,5.59,3.22c3.72,2.14,12.39,4.53,18.88,4.53,4.47,0,7.14-2.09,7.14-5.57C264.6,329.32,264.6,327.22,255.15,323.39Zm-64.08-57.71c9.81,0,17.18,2.18,20.81,4.24l2.91,1.63-5.48,23.29-4.91-2.23a29.85,29.85,0,0,0-12.54-2.66c-12.53,0-19.7,8.31-19.7,22.82,0,14.28,7.22,22.47,19.81,22.47a35.64,35.64,0,0,0,12.5-2.31l5.16-2.23,4.11,23.22-2.8,1.51c-3.64,2-11.19,4.09-21.55,4.09-26.77,0-44.06-17.91-44.06-45.62C145.31,285,163.71,265.67,191.07,265.67Z" transform="translate(-111.54 -44.1)"/></svg>