<svg id="Layer_1" data-name="Layer 1" xmlns="http://www.w3.org/2000/svg" viewBox="0 0 479.21 479.22"><title>pencil</title><path fill="#2ed13b" d="M568.17,165.51,460,57.33a15.29,15.29,0,0,0-21.63,0l-65.25,65.25,0,0,0,0L125.33,370.35a15.27,15.27,0,0,0-4.18,7.78L93.75,513.74a15.3,15.3,0,0,0,15,18.33,14.92,14.92,0,0,0,3-.31l135.59-27.41a15.2,15.2,0,0,0,7.78-4.18l313-313a15.31,15.31,0,0,0,0-21.63ZM287.61,424.44l-86.55-86.55L383.9,155.06l86.54,86.55Zm-50.83,50.83L128.3,497.2l21.92-108.48,29.2-29.2L266,446.08ZM492.08,220l-86.54-86.55,43.64-43.64,86.56,86.55Z" transform="translate(-93.44 -52.85)"/></svg>