<?xml version="1.0" encoding="utf-8"?>
<!-- Generator: Adobe Illustrator 17.0.0, SVG Export Plug-In . SVG Version: 6.00 Build 0)  -->
<!DOCTYPE svg PUBLIC "-//W3C//DTD SVG 1.0//EN" "http://www.w3.org/TR/2001/REC-SVG-20010904/DTD/svg10.dtd">
<svg version="1.0" id="Слой_1" xmlns="http://www.w3.org/2000/svg" xmlns:xlink="http://www.w3.org/1999/xlink" x="0px" y="0px"
	 width="353.6px" height="91.4px" viewBox="440.9 460.9 353.6 91.4" enable-background="new 440.9 460.9 353.6 91.4"
	 xml:space="preserve">
<path fill="#444444" d="M578.9,517.9V551h-17.2v-90.1h37.7c19,0,31.5,11.4,31.5,28.5c0,11.6-6.1,20.6-16.7,25.3l23.7,36.3h-20.2
	l-20.6-33.1H578.9z M596.3,503.6c10.2,0,17-5.6,17-14.2s-6.5-14.2-15.8-14.2h-18.6v28.5L596.3,503.6L596.3,503.6z"/>
<path fill="#444444" d="M644.4,470.9c0-5.7,4.1-9.9,9.9-9.9c5.7,0,9.7,4.1,9.7,9.9s-4,9.7-9.7,9.7
	C648.5,480.7,644.4,476.6,644.4,470.9z"/>
<rect x="646" y="485.4" fill="#444444" width="16.6" height="65.6"/>
<path fill="#444444" d="M695.5,525.1l-4.6-1.5c-11.6-3.5-17.4-8-17.4-17.8c0-13,9.6-21.7,24.1-21.7c9.6,0,17.3,2.2,23.1,6.5
	l-6.9,10.8c-4.6-2.8-9.6-4.3-15-4.3c-5,0-8.4,2.2-8.4,6c0,3.5,2.8,5.4,8.5,7.2l4.6,1.6c11.8,3.8,18.5,8.9,18.5,19.6
	c0,12.5-10.1,20.7-25.3,20.7c-9.4,0-17.5-2.6-23.3-7.8l6.3-10c5.1,3.2,10.8,4.7,17.2,4.7c4.9,0,8.3-2.4,8.3-6.2
	C705.3,529.1,702,527.1,695.5,525.1z"/>
<path fill="#444444" d="M793.9,524.1h-47.5c1.3,9.6,6.5,15.1,15.7,15.1c6.5,0,12.1-2.9,16.1-7.8l12.8,6.5
	c-6,8.9-16.4,14.4-28.6,14.4c-20,0-33.5-13.5-33.5-33.6c0-20.7,13.1-34.5,32.8-34.5s32.8,13.1,32.8,33
	C794.4,519.2,794.3,521.5,793.9,524.1z M746.5,512.9h30.7c-1.3-10.1-6.7-15.7-15.5-15.7C753,497.2,747.8,502.8,746.5,512.9z"/>
<g>
	<polygon fill="#63B12D" points="482.5,551 482.5,528.2 459.8,551 	"/>
</g>
<g>
	<polygon fill="#63B12D" points="440.9,461.6 440.9,479.9 504.8,479.9 504.8,551 530.2,551 530.2,461.6 	"/>
</g>
<g>
	<polygon fill="#63B12D" points="440.9,517.4 456.1,502 440.9,502 	"/>
</g>
</svg>
