<svg id="Layer_1" data-name="Layer 1" xmlns="http://www.w3.org/2000/svg" fill="#6a6a67" viewBox="0 0 354.96 489.6"><title>ico-blank</title><path d="M494.5,160.38a2.4,2.4,0,0,0-2.45-2.45c0-2.45-2.45-2.45-4.9-4.9L401.47,67.36,399,64.91c-2.45,0-2.45-2.45-4.9-2.45H176.26c-19.58,0-36.72,17.14-36.72,36.72V515.34c0,19.58,17.14,36.72,36.72,36.72H457.78c19.58,0,36.72-17.14,36.72-36.72v-355Zm-90.58-56.3,49,49h-49ZM470,515.34c0,7.34-4.9,12.24-12.24,12.24H176.26c-7.34,0-12.24-4.9-12.24-12.24V99.18c0-7.34,4.9-12.24,12.24-12.24H379.44v78.34c0,7.34,4.9,12.24,12.24,12.24H470Z" transform="translate(-139.54 -62.46)"/></svg>