<svg id="image-wrapper" fill="#2ed13b" xmlns="http://www.w3.org/2000/svg" viewBox="0 0 477.36 428.4"><title>image-wrapper</title><path d="M104,105.3A36.91,36.91,0,0,0,67.32,142V497A36.91,36.91,0,0,0,104,533.7H508A36.91,36.91,0,0,0,544.68,497V142A36.91,36.91,0,0,0,508,105.3Zm0,24.48H508A12,12,0,0,1,520.2,142V393.9l-77.07-77.07c-4.65-4.61-13.15-4.42-17.59.38l-77.07,82.43L228.93,280.1a12.33,12.33,0,0,0-16.83-.38L91.8,389.5V142A12,12,0,0,1,104,129.78Zm238.68,24.48a61.2,61.2,0,1,0,61.2,61.2A61.39,61.39,0,0,0,342.72,154.26Zm0,24.48A36.72,36.72,0,1,1,306,215.46,36.54,36.54,0,0,1,342.72,178.74Zm-122.78,127L340.23,426c4.65,4.61,13.15,4.42,17.59-.38l77.07-82.43,85.3,85.3V497A12,12,0,0,1,508,509.22H104A12,12,0,0,1,91.8,497v-74.2Z" transform="translate(-67.32 -105.3)"/></svg>