<svg viewBox="0 0 550.79 392.07" xmlns="http://www.w3.org/2000/svg"><title>stock</title><path d="M232.75,123.28a18.36,18.36,0,0,0-15.11,8l-55.65,78H49a18.36,18.36,0,0,0-1.91,0,18.36,18.36,0,0,0-15.68,23.52l79.56,269.28a18.36,18.36,0,0,0,17.59,13.2h355a18.36,18.36,0,0,0,17.59-13.2l79.56-269.28A18.36,18.36,0,0,0,563,209.34H450l-55.65-78a18.39,18.39,0,1,0-30,21.23l40.54,56.8H206.93l40.54-56.8a18.36,18.36,0,0,0-14.73-29.26ZM73.63,246.06H538.37L469.71,478.62H142.29Zm232,42.46c-9.61.2-18.18,9.13-18,18.74v70.19L275,366.74a18.31,18.31,0,1,0-23.91,27.73L294,431.19a18.36,18.36,0,0,0,23.91,0l42.84-36.72a18.36,18.36,0,1,0-23.91-27.73l-12.43,10.71V307.26C324.57,297.39,315.49,288.31,305.62,288.52Z" transform="translate(-30.59 -123.27)"></path></svg>